<svg xmlns="http://www.w3.org/2000/svg" viewBox="0 0 512 512">
  <defs>
    <radialGradient id="bg" cx="35%" cy="25%" r="85%">
      <stop offset="0" stop-color="#12384b"/>
      <stop offset="1" stop-color="#02080d"/>
    </radialGradient>
    <linearGradient id="line" x1="0" x2="1" y1="0" y2="1">
      <stop stop-color="#62e7ff"/>
      <stop offset="1" stop-color="#4bd89c"/>
    </linearGradient>
  </defs>
  <rect width="512" height="512" rx="116" fill="url(#bg)"/>
  <circle cx="256" cy="256" r="166" fill="none" stroke="#244e60" stroke-width="16"/>
  <path d="M95 258h322M256 91c-55 47-88 104-88 165s33 119 88 165M256 91c55 47 88 104 88 165s-33 119-88 165M122 173c43 26 89 39 134 39s91-13 134-39M122 339c43-26 89-39 134-39s91 13 134 39" fill="none" stroke="#2d6477" stroke-width="10" stroke-linecap="round"/>
  <path d="M112 332c62-84 146-126 253-125" fill="none" stroke="url(#line)" stroke-width="22" stroke-linecap="round"/>
  <path d="M347 174l54 32-55 30" fill="none" stroke="#4bd89c" stroke-width="22" stroke-linecap="round" stroke-linejoin="round"/>
  <circle cx="114" cy="331" r="18" fill="#62e7ff"/>
</svg>
